<svg width="200" height="200" viewBox="0 0 200 200" fill="none" xmlns="http://www.w3.org/2000/svg">
<rect width="200" height="200" rx="48" fill="#F1FFFC"/>
<path d="M97.6653 76.5594C97.6653 82.3259 92.9929 86.9756 87.2492 86.9756H82.0297V57.2542C82.0297 47.2255 90.007 38.9062 100.013 38.7695C102.908 38.7239 105.643 39.3621 108.081 40.5245C101.928 43.4419 97.6653 49.7327 97.6653 57.0035V76.5594ZM54.4052 100.013C54.4052 89.9386 62.5649 81.7561 72.662 81.7561H57.0263C46.952 81.7561 38.7695 89.9158 38.7695 100.013C38.7695 110.11 46.9292 118.27 57.0263 118.27H72.662C62.5877 118.27 54.4052 110.11 54.4052 100.013ZM97.6653 143.547V123.466C97.6653 117.7 92.9929 113.05 87.2492 113.05H82.0297V143.296C82.0297 153.325 90.007 161.644 100.013 161.781C102.908 161.826 105.643 161.188 108.081 160.025C101.928 157.108 97.6653 150.817 97.6653 143.547Z" fill="#7ED7C1"/>
<path d="M100.286 167C87.3401 167 76.8327 156.47 76.8327 143.547V123.466H57.0033C44.0571 123.466 33.5498 112.936 33.5498 100.013C33.5498 87.0896 44.0799 76.5594 57.0033 76.5594H76.8099V57.0035C76.8099 44.0801 87.3401 33.55 100.286 33.55C113.232 33.55 123.74 44.0801 123.74 57.0035V76.5594H143.546C156.492 76.5594 167 87.0896 167 100.013C167 102.885 164.675 105.232 161.78 105.232C158.886 105.232 156.561 102.908 156.561 100.013C156.561 92.8333 150.703 86.9756 143.524 86.9756H118.497C115.626 86.9756 113.278 84.6508 113.278 81.7561V57.0035C113.278 49.8238 107.42 43.9662 100.241 43.9662C93.061 43.9662 87.2033 49.8238 87.2033 57.0035V81.7561C87.2033 84.628 84.8785 86.9756 81.9838 86.9756H57.0033C49.8236 86.9756 43.966 92.8333 43.966 100.013C43.966 107.193 49.8236 113.05 57.0033 113.05H82.0294C84.9013 113.05 87.2489 115.375 87.2489 118.27V143.547C87.2489 150.726 93.1066 156.584 100.286 156.584C107.466 156.584 113.324 150.726 113.324 143.547V118.27C113.324 115.398 115.648 113.05 118.543 113.05C121.438 113.05 123.762 115.375 123.762 118.27V143.547C123.762 156.493 113.232 167 100.309 167H100.286Z" fill="#2D9596"/>
<path d="M143.547 123.489H138.851C135.979 123.489 133.632 121.164 133.632 118.27C133.632 115.375 135.957 113.05 138.851 113.05H143.547C145.302 113.05 147.034 112.663 148.766 111.933C151.41 110.771 154.487 111.979 155.627 114.623C156.789 117.267 155.581 120.344 152.937 121.483C149.906 122.805 146.738 123.489 143.547 123.489Z" fill="#7ED7C1"/>
</svg>
